<?xml version="1.0" encoding="UTF-8" standalone="no"?>
<!-- Created with Inkscape (http://www.inkscape.org/) -->

<svg
   version="1.1"
   id="svg1"
   width="449.83899"
   height="381.673"
   viewBox="0 0 449.83899 381.673"
   sodipodi:docname="03_texto.svg"
   inkscape:version="1.4.2 (f4327f4, 2025-05-13)"
   xmlns:inkscape="http://www.inkscape.org/namespaces/inkscape"
   xmlns:sodipodi="http://sodipodi.sourceforge.net/DTD/sodipodi-0.dtd"
   xmlns="http://www.w3.org/2000/svg"
   xmlns:svg="http://www.w3.org/2000/svg">
  <defs
     id="defs1">
    <rect
       x="134.18587"
       y="86.60223"
       width="213.17472"
       height="234.11152"
       id="rect1226" />
  </defs>
  <sodipodi:namedview
     id="namedview1"
     pagecolor="#505050"
     bordercolor="#eeeeee"
     borderopacity="1"
     inkscape:showpageshadow="0"
     inkscape:pageopacity="0"
     inkscape:pagecheckerboard="0"
     inkscape:deskcolor="#505050"
     inkscape:zoom="1.4860291"
     inkscape:cx="248.64924"
     inkscape:cy="223.07773"
     inkscape:window-width="1920"
     inkscape:window-height="1009"
     inkscape:window-x="-8"
     inkscape:window-y="-8"
     inkscape:window-maximized="1"
     inkscape:current-layer="g2" />
  <g
     inkscape:groupmode="layer"
     inkscape:label="Image"
     id="g1"
     transform="translate(-1.3386116,-0.846816)">
    <g
       id="g2"
       transform="matrix(0.49014449,0,0,0.49014449,-15.057745,19.165076)"
       style="display:inline">
      <path
         style="display:inline;fill:#ffd42a;fill-opacity:1;stroke-width:0.985396"
         d="m 418.91922,732.73976 c 0,-0.55 -1.07015,-1 -2.37819,-1 -3.72924,0 -22.06756,-3.77326 -36.55258,-7.52101 C 322.29479,709.29159 264.3245,674.77021 213.06618,624.81642 l -9.22455,-8.98979 2.74659,-0.0434 2.74658,-0.0434 6.96347,5.79227 c 3.82994,3.18575 11.55371,9.20942 17.16408,13.38594 l 10.20061,7.59367 3.61602,5.40704 c 1.98881,2.97387 4.82668,6.55084 6.30649,7.94882 3.16324,2.98844 15.30644,10.87226 16.74625,10.87226 1.5941,0 1.1455,-3.23317 -0.93663,-6.75 -1.0582,-1.7875 -1.71674,-3.25 -1.4634,-3.25 0.25333,0 4.94416,2.55857 10.42403,5.6857 27.09184,15.4602 60.05145,29.18506 89.22978,37.15654 l 10.06603,2.75002 0.30723,3.80388 c 0.16885,2.09214 -0.0495,3.59312 -0.48551,3.33551 -0.43598,-0.2576 -5.81768,-1.92358 -11.95929,-3.70217 -20.18216,-5.8447 -49.33699,-17.44716 -73.92712,-29.41998 -7.96603,-3.87863 -10.55027,-4.4207 -10.55027,-2.213 0,2.76431 25.61668,17.57759 46.12267,26.67122 26.42456,11.71824 61.15961,21.31875 88.60421,24.48948 l 6.06878,0.70114 v 3.87083 3.87083 h -1.4565 c -0.80108,0 -1.45651,-0.45 -1.45651,-1 z m 9.73326,-25.75 0.0233,-26.75 8.4731,-9.02511 c 4.66024,-4.96382 14.85871,-15.98229 22.66327,-24.4855 l 14.19008,-15.46039 1.69265,1.44678 c 0.931,0.79573 11.25891,11.88265 22.95098,24.63761 l 21.25813,23.19082 v 26.5979 26.59789 h -16.9926 -16.99259 v -17.5 -17.5 h -11.16657 -11.16656 v 17.5 17.5 h -17.4781 -17.4781 z m 44.64305,-29.75 v -6.5 h -5.34053 -5.34053 v 5.83334 c 0,3.20833 0.2913,6.13333 0.64737,6.5 0.35607,0.36666 2.7593,0.66666 5.34053,0.66666 h 4.69316 z m 12.42664,-0.25 0.28916,-6.25 h -5.38694 -5.38685 v 6.55226 6.55226 l 5.09778,-0.30226 5.09778,-0.30226 z m -12.42664,-14.75 v -6.5 h -5.34053 -5.34053 v 5.83334 c 0,3.20833 0.2913,6.13333 0.64737,6.5 0.35607,0.36666 2.7593,0.66666 5.34053,0.66666 h 4.69316 z m 12.62307,0 v -6.5 h -5.34053 -5.34053 v 6.5 6.5 h 5.34053 5.34053 z m 40.85895,67.98158 -0.0767,-4.01842 14.80783,-2.21144 c 41.26667,-6.16287 82.6117,-21.26017 117.49168,-42.90257 9.36981,-5.81383 12.81737,-9.34915 9.11706,-9.34915 -0.7267,0 -5.86089,2.17818 -11.40932,4.8404 -26.44737,12.68979 -48.81381,21.57619 -72.04327,28.62348 l -14.37583,4.36131 0.29625,-3.61647 0.29635,-3.61646 10.10729,-2.76133 c 14.38934,-3.93117 29.74987,-9.20267 43.78352,-15.02585 12.7829,-5.3042 41.01343,-19.1951 51.13063,-25.15897 l 5.97896,-3.52445 -2.32594,4.18917 c -4.26495,7.68126 -2.62531,9.72012 4.06939,5.06051 10.10884,-7.03584 12.63249,-9.36315 16.86452,-15.55261 4.87124,-7.12436 6.62594,-8.82211 16.53263,-15.996 3.47387,-2.51563 9.99009,-7.55486 14.48051,-11.1983 l 8.16421,-6.62443 2.51219,0.0479 2.51209,0.0479 -9.71006,9.57743 c -48.86799,48.20045 -109.39815,84.12032 -167.31212,99.28648 -10.86206,2.84447 -32.70328,7.04033 -36.64789,7.04033 -1.75335,0 -3.40823,0.5625 -3.67759,1.25 -0.26945,0.6875 -0.52434,-0.55829 -0.56648,-2.76842 z m -130.67696,-16.84365 -10.68106,-2.13968 -0.25091,-15.49912 -0.25101,-15.49913 22.05542,-24.27977 22.05542,-24.27977 3.90345,4.01999 3.90334,4.01998 -4.88066,5.25979 c -2.68435,2.89288 -9.11862,9.88371 -14.29854,15.53518 l -9.41788,10.27539 v 22.47461 c 0,12.36103 -0.32772,22.42456 -0.72826,22.3634 -0.40054,-0.0612 -5.53473,-1.07405 -11.40931,-2.25087 z m 144.46582,-19.74076 0.57105,-22.02718 -10.32995,-11.18499 c -5.68155,-6.15175 -12.19835,-13.21644 -14.48177,-15.6993 l -4.15163,-4.51431 3.63068,-4.3414 3.63069,-4.34139 18.44047,20.28925 c 10.14234,11.15908 20.09068,22.2017 22.10746,24.53915 l 3.66691,4.2499 -0.26839,15.28866 -0.26838,15.28867 -7.76805,1.61668 c -4.27242,0.88917 -9.474,1.8972 -11.55914,2.24006 l -3.7911,0.62337 z m -166.26805,-18.30988 -1.27756,-2.45855 25.13395,-27.70005 c 13.82372,-15.23504 26.33309,-29.1015 27.79863,-30.81437 l 2.66473,-3.11432 8.25908,8.79456 c 4.54256,4.83701 8.25918,9.39441 8.25918,10.12756 0,0.73315 -0.71573,1.94473 -1.59051,2.69241 l -1.59051,1.35942 -5.57007,-6.23697 -5.57008,-6.23698 h -1.88462 -1.88463 l -25.06748,27.75 c -13.78701,15.2625 -25.36776,27.87282 -25.7349,28.02292 -0.36714,0.15011 -1.2425,-0.83343 -1.94521,-2.18563 z m 43.82531,0.33042 -1.26269,-2.08229 4.6013,-5.16771 c 2.53083,-2.84224 10.53454,-11.69271 17.7861,-19.66771 7.25167,-7.975 17.93283,-19.7875 23.73594,-26.25 5.80312,-6.4625 10.9008,-11.75 11.32814,-11.75 0.42744,0 8.11159,8.2125 17.07591,18.25 8.96442,10.0375 20.07807,22.3 24.69724,27.25 4.61907,4.95 10.01252,10.88073 11.98532,13.17939 l 3.58708,4.17939 -1.2556,2.07061 c -1.97649,3.25925 2.30235,7.3492 -34.18824,-32.67939 l -20.28333,-22.25 h -1.74703 -1.74704 l -25.88623,28.5 c -14.23737,15.675 -26.17375,28.5 -26.52515,28.5 -0.35141,0 -1.20725,-0.93703 -1.90172,-2.08229 z m 128.04379,-26.43128 c -14.12687,-15.66753 -26.03752,-28.48643 -26.46825,-28.48643 -0.43074,0 -3.56651,3.02552 -6.96823,6.72337 l -6.18511,6.72336 -1.57458,-1.34581 c -0.86595,-0.74019 -1.57459,-1.94565 -1.57459,-2.6788 0,-0.73315 3.66506,-5.28995 8.14451,-10.12623 l 8.1444,-8.79322 8.16723,8.99867 c 4.49197,4.94926 17.15912,18.9177 28.14916,31.04097 l 19.98203,22.04231 -1.73587,2.20769 c -0.95469,1.21423 -1.88423,2.20159 -2.06571,2.19412 -0.18139,-0.007 -11.88812,-12.83246 -26.01499,-28.5 z m -248.62379,5.52992 c -4.53945,-1.01361 -9.98563,-2.4841 -12.10252,-3.26776 l -3.84897,-1.42483 8.704,-0.61721 c 15.86303,-1.12487 28.32802,-5.87071 52.47159,-19.97771 7.97098,-4.65739 15.44947,-8.77339 16.61885,-9.14665 l 2.12621,-0.67867 1.02412,3.79824 c 0.56328,2.08903 1.01169,6.04824 0.99645,8.79824 l -0.0282,5 -7.49208,4.42883 c -20.64475,12.20368 -28.90257,15.08556 -42.93389,14.98345 -4.0054,-0.0292 -10.99664,-0.88232 -15.53609,-1.89593 z m 323.15876,0.4368 c -6.84773,-1.71019 -15.15206,-5.68624 -26.51671,-12.69598 l -8.73905,-5.39028 -0.28207,-4.43344 c -0.15517,-2.4384 0.0825,-6.23107 0.52793,-8.42816 l 0.81001,-3.99471 1.44651,-0.28691 c 0.79564,-0.1578 8.37764,3.81569 16.84879,8.82998 24.3066,14.38767 36.27444,19.07269 52.98875,20.74335 l 8.25355,0.82497 -6.79704,2.16739 c -13.49009,4.30163 -27.97429,5.30272 -38.54067,2.66379 z M 268.67557,640.21014 c -5.3581,-1.73741 -14.43652,-6.79354 -18.66777,-10.39683 l -3.35512,-2.85715 3.24433,-2.81151 c 4.36865,-3.78574 5.89342,-7.9986 5.89342,-16.28367 v -6.94303 l -1.92949,-6.33909 c -1.06121,-3.4865 -1.93511,-6.87117 -1.94201,-7.52147 -0.01,-0.65031 2.15592,0.32044 4.80619,2.15721 2.65026,1.83678 7.12902,4.16885 9.9528,5.18238 l 5.1341,1.84278 h 13.10857 13.10858 l 7.28254,-2.32422 c 4.0054,-1.27833 17.68667,-7.67846 30.40296,-14.22253 24.61694,-12.66847 36.99357,-17.42604 49.99917,-19.21962 l 8.06226,-1.11187 5.96488,1.26882 c 10.59125,2.25291 19.10308,8.25671 23.14868,16.32794 2.3374,4.66327 4.74666,15.01875 4.7186,20.28148 l -0.0214,4 -5.74631,5.98054 -5.74632,5.98053 -2.71425,-2.67158 c -1.49292,-1.46937 -4.68064,-3.58823 -7.08387,-4.70857 l -4.36953,-2.03699 -9.22455,-0.007 -9.22456,-0.007 -11.32546,3.92492 -11.32552,3.92492 -22.65968,11.88209 c -29.50187,15.46996 -38.33093,18.32741 -56.04906,18.13975 -5.1341,-0.0544 -11.18317,-0.69822 -13.44222,-1.43076 z m 377.45895,-0.84327 c -10.15526,-2.80208 -17.39896,-6.07691 -42.23874,-19.09586 -10.68106,-5.59813 -23.13421,-11.45825 -27.67366,-13.02248 l -8.25355,-2.84407 -9.85794,-0.44215 -9.85784,-0.44215 -3.53621,1.20189 c -1.94492,0.66104 -5.52317,2.76386 -7.95166,4.67294 l -4.41545,3.47104 -5.73729,-6.30648 -5.73738,-6.30648 v -3.44276 c 0,-4.2219 2.66104,-15.56243 4.54751,-19.38028 4.2466,-8.59402 12.9974,-14.73201 23.97219,-16.81458 l 6.43747,-1.22157 8.01031,1.24007 c 12.67221,1.96178 26.01888,7.12028 48.89819,18.89926 11.69111,6.01889 24.7521,12.17126 29.02453,13.67194 l 7.76804,2.72849 10.68106,0.52874 10.68106,0.52875 5.40365,-1.15818 c 6.20269,-1.32942 16.30008,-5.99315 18.26219,-8.43482 2.6388,-3.28378 2.79008,-1.52692 0.50618,5.87973 l -2.32439,7.53809 v 6.99403 c 0,8.33494 1.51836,12.54344 5.89342,16.33467 l 3.24432,2.81151 -3.35511,2.92476 c -4.44002,3.87056 -13.82945,8.83236 -19.86221,10.49613 -2.67027,0.73644 -9.22455,1.32282 -14.56509,1.30307 l -9.71005,-0.0359 z m -200.89037,-22.65992 -6.11403,-7.03281 12.07231,-13.21719 c 6.63984,-7.26945 14.521,-15.91719 17.51374,-19.21719 l 5.44132,-6 12.9538,14 c 7.12456,7.7 15.06641,16.35414 17.64861,19.23142 l 4.69481,5.23142 -6.04199,7.01858 c -3.32307,3.86022 -6.13413,7.01858 -6.24667,7.01858 -0.11254,0 -4.97349,-5.4 -10.80224,-12 -5.82866,-6.6 -11.2758,-12 -12.10465,-12 -0.82885,0 -6.25124,5.4 -12.04979,12 -5.79846,6.6 -10.61203,12 -10.69689,12 -0.0845,0 -2.90554,-3.16476 -6.26833,-7.03281 z m 308.73083,-7.04511 c -23.69768,-3.19249 -41.45329,-15.73362 -53.68952,-37.92208 l -2.4816,-4.5 6.93677,-0.0358 6.93677,-0.0358 3.39852,-1.82291 c 1.86918,-1.00261 5.271,-3.68321 7.55947,-5.95691 l 4.16095,-4.13399 6.52011,3.46909 c 7.79892,4.14945 14.70258,11.03568 24.5948,24.53258 l 7.34109,10.01621 5.59639,3.96945 5.59639,3.96945 6.9859,0.36331 6.9858,0.3633 7.72406,-2.69817 c 15.53454,-5.42652 31.07645,-15.5656 44.68539,-29.15133 12.50373,-12.4825 22.08639,-25.91506 34.96018,-49.00594 7.37148,-13.22157 5.81574,-8.85519 -2.19389,6.15751 -21.90434,41.05624 -47.64443,66.7036 -77.4208,77.14196 -12.55501,4.40129 -32.78251,6.81783 -44.19678,5.28012 z m -584.60405,-1.8696 C 140.36505,601.44253 115.87629,582.12322 93.840102,548.2056 87.626346,538.64151 76.00875,517.48829 74.636525,513.23976 c -0.355291,-1.1 2.305847,3.4 5.913521,10 20.137294,36.83913 40.917684,59.18184 66.973264,72.00837 7.39605,3.64094 16.9588,6.49163 21.77616,6.49163 7.59656,0 13.99588,-5.29514 25.22818,-20.87496 9.00908,-12.49618 14.08463,-17.75238 21.65167,-22.42248 l 5.54066,-3.41947 4.76919,4.73415 4.76919,4.73416 5.08972,1.74102 5.08972,1.74101 4.69306,-0.46441 4.69307,-0.4644 -1.85297,3.74064 c -3.26229,6.58561 -13.46086,19.69243 -18.69487,24.02604 -6.81393,5.64175 -19.03122,11.55377 -27.71172,13.40986 -9.32379,1.99365 -22.93088,1.81792 -33.19344,-0.42868 z m 105.04329,-19.95517 c -2.84117,-1.01057 -5.65951,-2.34588 -6.26299,-2.96735 l -1.09714,-1.12996 h 4.07823 4.07822 v -1.18493 c 0,-0.65171 -3.76838,-5.15083 -8.37405,-9.99803 l -8.37405,-8.8131 1.2291,-1.52516 1.2291,-1.52516 10.78622,10.81343 c 5.93236,5.94739 12.86175,12.33411 15.3985,14.19271 2.53675,1.85861 4.61227,3.528 4.61227,3.70976 0,1.13393 -13.02157,-0.0492 -17.30341,-1.57221 z m 384.33745,0.18441 c 6.32756,-4.6556 15.69262,-13.18441 21.85355,-19.90223 l 6.79704,-7.41138 1.3798,0.9306 1.3797,0.93061 -1.48855,2.33534 c -0.81866,1.28444 -4.60742,5.52662 -8.41949,9.42707 -3.81208,3.90045 -6.93104,7.61295 -6.93104,8.25 v 1.15827 l 4.61227,0.0833 4.61228,0.0833 -5.34053,2.59638 -5.34053,2.59638 -7.76805,0.35199 -7.76804,0.35199 z m -365.09203,-7.38641 c -9.59586,-7.05629 -19.28018,-16.51685 -23.35637,-22.81675 -1.57342,-2.4318 -2.85806,-4.6818 -2.85466,-5 0,-0.31821 1.27891,-1.32422 2.83446,-2.23559 l 2.82825,-1.65703 4.41779,7.83035 c 5.47181,9.69847 12.55432,17.27262 22.24117,23.78507 l 7.43994,5.00187 -1.51418,0.59838 c -2.72164,1.07559 -3.68497,0.63491 -12.0364,-5.5063 z m 348.81691,5.43667 -1.23046,-0.51012 5.98596,-3.98446 c 12.17621,-8.10489 20.21604,-16.88499 25.73854,-28.10853 l 2.36217,-4.80057 2.87893,1.75146 c 1.58352,0.9633 2.87903,2.15665 2.87903,2.65187 0,3.8428 -15.72203,20.16334 -27.37624,28.41837 -7.17126,5.07965 -8.61631,5.66883 -11.23793,4.58198 z m 120.46421,-9.08198 c -2.07863,-2.6125 -5.16681,-6.60027 -6.86268,-8.8617 l -3.08342,-4.11171 9.63849,-1.12874 9.63849,-1.12873 6.60109,-2.5521 c 18.33725,-7.08949 34.33631,-21.89978 47.78969,-44.23878 6.8183,-11.32171 6.51234,-13.28141 -1.45495,-9.31709 -6.1856,3.07779 -15.37199,6.00214 -20.9913,6.68231 l -5.21877,0.63168 -5.79078,-1.53479 c -3.1849,-0.84414 -7.10165,-2.07039 -8.7038,-2.72501 l -2.91302,-1.19022 7.0561,-1.74645 c 3.88082,-0.96055 9.99816,-3.26593 13.59408,-5.12307 l 6.53797,-3.37661 10.1273,-10.26449 c 5.56998,-5.64547 10.43093,-10.2645 10.80205,-10.2645 0.37112,0 6.30066,2.39454 13.17684,5.32119 16.932,7.20666 20.6563,8.16767 31.67604,8.17366 5.20508,0.003 9.46537,0.25829 9.46731,0.56767 0.01,1.10849 -11.82879,18.39197 -18.37483,26.83275 -7.75862,10.00439 -26.88889,29.48104 -35.99177,36.64353 -9.51062,7.4833 -25.37267,16.97793 -34.26194,20.50838 -9.48895,3.76859 -21.17928,6.95282 -25.52608,6.95282 h -3.15276 z m -589.20865,2.26647 c -33.11207,-9.20446 -67.13455,-37.25427 -94.721496,-78.09328 l -6.703143,-9.92319 9.934261,-0.62854 9.934261,-0.62854 6.311532,-2.53061 c 3.471345,-1.39183 10.451125,-4.33789 15.510645,-6.54679 l 9.19921,-4.01619 7.11505,7.88734 c 11.2823,12.50697 27.0257,21.87191 36.97599,21.99514 l 2.56801,0.0318 -1.68042,1.31426 c -0.9243,0.72285 -4.99184,2.11737 -9.03909,3.09895 l -7.35867,1.78468 -5.24284,-0.63459 c -5.5025,-0.66602 -21.43961,-6.16617 -22.37285,-7.72122 -0.91711,-1.52821 -3.34191,-1.00392 -3.34191,0.72259 0,2.33984 5.25644,11.67299 11.4735,20.37172 15.69174,21.95567 34.48119,34.42822 55.95993,37.14662 l 9.16241,1.1596 -3.21005,4.09689 c -1.76558,2.25329 -4.41982,6.00939 -5.89828,8.34689 l -2.68823,4.25 -3.51222,-0.0658 c -1.93172,-0.0362 -5.70077,-0.67417 -8.3756,-1.41772 z m 64.01626,-21.41379 c -7.59744,-3.55359 -13.45775,-11.85629 -16.10326,-22.81463 l -1.15588,-4.78805 0.13866,-17.88189 c 0.0767,-9.83504 0.36451,-18.11439 0.64047,-18.39855 0.27596,-0.28416 2.14816,0.65516 4.16057,2.08739 2.01231,1.43223 7.15446,4.22516 11.42689,6.2065 4.27242,1.98134 8.86042,4.13701 10.19556,4.79037 1.33513,0.65336 5.07331,3.88979 8.30705,7.19206 l 5.87944,6.00412 1.76062,5.82997 1.76053,5.82996 -0.66416,5.17004 c -0.87944,6.84433 -3.37328,12.43774 -7.38965,16.57411 -5.98178,6.16035 -11.94094,7.4802 -18.95684,4.1986 z m 460.33495,10e-4 c -5.02583,-2.39636 -8.5899,-6.3777 -11.28318,-12.60414 l -2.16282,-5 v -6 -6 l 1.97056,-4.5508 c 3.99938,-9.23607 10.11623,-14.49984 23.92111,-20.585 4.30855,-1.89918 9.89124,-4.97544 12.40615,-6.83615 l 4.57246,-3.3831 0.70418,13.53961 c 0.81613,15.69406 0.20352,23.71643 -2.49937,32.72879 l -1.93706,6.45874 -3.76566,4.90611 -3.76556,4.90611 -4.45759,2.15785 c -5.42491,2.62618 -8.6168,2.6872 -13.70322,0.26198 z m -514.3215,-3.62199 c -14.53479,-2.98044 -32.19233,-15.53676 -44.7418,-31.81598 l -2.95545,-3.83383 4.75841,0.83383 c 2.61705,0.45861 7.81698,0.77849 11.55535,0.71086 l 6.79704,-0.12298 11.46573,-3.62702 11.46564,-3.62703 h 6.2188 6.21871 l 5.18158,1.99658 c 2.8499,1.09812 7.23583,3.33821 9.74647,4.97798 l 4.56489,2.9814 0.0165,3.77202 c 0.0146,3.33514 1.48254,11.80331 3.35153,19.33799 l 0.63649,2.56596 -6.61478,2.71764 c -5.99615,2.46351 -16.01518,4.77516 -19.72326,4.55068 -0.80108,-0.0485 -4.37506,-0.68664 -7.94214,-1.4181 z m 567.09925,0.48587 c -6.52691,-1.03594 -19.83949,-6.20362 -19.58257,-7.60157 1.86812,-10.165 3.3357,-18.61613 3.74614,-21.57296 l 0.51454,-3.70651 7.6891,-3.96342 c 4.22902,-2.17988 10.14798,-4.48912 13.15324,-5.13166 l 5.46424,-1.16823 5.988,1.08009 c 3.29345,0.59405 10.13904,2.46236 15.21255,4.1518 l 9.22455,3.07171 8.25355,0.11054 c 4.53945,0.0608 9.71219,-0.2373 11.49486,-0.66243 l 3.24122,-0.77297 -1.16016,2.23264 c -2.33469,4.49271 -18.14431,19.6417 -25.22799,24.17375 -12.59608,8.05892 -26.39785,11.60247 -38.01127,9.75922 z m -480.72569,-23.25473 -0.48093,-9.21329 -2.16855,-4.71635 c -1.19278,-2.59399 -3.89441,-6.73556 -6.00383,-9.20349 l -3.83518,-4.48714 1.89133,-3.81799 c 4.55139,-9.18795 11.05441,-16.36434 24.05919,-26.5507 6.87005,-5.38109 10.28994,-9.30505 13.16712,-15.10786 l 2.04115,-4.11647 0.41025,-6.5 0.41035,-6.5 -2.38683,-9.5 c -1.3128,-5.225 -2.26613,-9.63826 -2.11854,-9.80726 0.4922,-0.56376 6.41592,16.22364 7.87146,22.30726 0.78952,3.3 1.68498,11.4 1.98988,18 l 0.55435,12 -1.55973,9.19499 c -1.96444,11.58166 -6.21288,23.64668 -11.52962,32.74259 -3.92015,6.70658 -16.75859,21.69333 -20.21614,23.59902 l -1.61469,0.88998 z m 400.91116,3.28846 C 645.0235,509.65207 636.49418,470.38906 648.9953,433.23283 c 2.55161,-7.58395 4.79851,-12.86919 4.87775,-11.47343 0.0165,0.28606 -0.80157,3.66106 -1.81743,7.5 -1.01587,3.83895 -2.14525,9.31249 -2.50976,12.16344 l -0.66281,5.18353 1.10229,5.46785 1.10218,5.46785 3.59234,5.29453 c 1.99609,2.94205 7.02435,7.9845 11.31658,11.34861 10.69067,8.37908 17.12728,15.22576 21.68993,23.07185 l 3.88791,6.68566 -3.64545,3.75429 c -2.00493,2.06486 -4.84279,6.27468 -6.30619,9.35516 l -2.66085,5.60087 -0.63474,9.24757 -0.63485,9.24757 z m -464.27053,-26.27986 -5.80467,-3.22189 -2.58579,-5.35729 c -3.58758,-7.43269 -4.98679,-15.76603 -4.80939,-28.64271 0.15798,-11.46478 2.91272,-32.1527 4.23329,-31.79207 0.4188,0.11437 6.45884,5.22139 13.42231,11.34894 17.56209,15.45382 23.76186,24.76223 25.47656,38.25081 l 0.61115,4.80768 -3.8478,-2.22719 c -2.11631,-1.22495 -6.45641,-4.4009 -9.64471,-7.05768 -3.1882,-2.65677 -6.19822,-4.83049 -6.68877,-4.83049 -0.49055,0 -1.1822,3.9375 -1.53691,8.75 -1.3795,18.71385 -1.85335,23.24899 -2.42635,23.22189 -0.32684,-0.0155 -3.20635,-1.47797 -6.39892,-3.25 z m 528.34573,2.51176 c -0.25294,-0.4215 -0.7767,-7.6215 -1.16394,-16 l -0.70408,-15.23365 h -1.42883 c -0.78584,0 -3.45581,1.726 -5.93314,3.83555 -5.2242,4.4486 -11.90511,9.16445 -12.98321,9.16445 -1.22852,0 -0.84643,-5.28721 0.79272,-10.9719 2.80087,-9.71293 8.14829,-16.91898 20.79477,-28.02212 4.53945,-3.98548 10.24789,-9.23046 12.68541,-11.65552 l 4.43186,-4.40921 1.70499,10.77938 c 0.9378,5.92865 1.95619,14.69534 2.26322,19.48151 l 0.55814,8.70214 -1.18949,7.79786 c -1.21074,7.93794 -4.64742,17.22497 -7.63365,20.62882 -1.42651,1.62607 -9.95194,6.66904 -11.27435,6.66904 -0.25324,0 -0.66747,-0.34486 -0.92042,-0.76635 z M 164.5159,498.34816 c -11.95463,-3.55307 -24.10511,-12.59818 -34.04976,-25.34736 -6.64595,-8.52021 -15.50861,-24.27718 -19.70093,-35.02647 l -2.44344,-6.26498 4.42963,4.56193 c 7.5554,7.78094 17.13942,11.46802 29.80929,11.46802 7.33381,0 19.85279,3.13111 24.73443,6.1863 6.38649,3.99703 10.95206,8.22757 15.2844,14.16279 l 4.26951,5.84908 0.0165,5.15092 c 0.01,2.833 0.65844,8.26987 1.44252,12.08193 0.78419,3.81207 1.17813,7.18707 0.87556,7.5 -0.30256,0.31294 -4.99359,0.66068 -10.42433,0.77275 l -9.87425,0.20377 z m 597.00953,0.68323 -2.58628,-0.40824 0.87818,-3.15376 c 0.48307,-1.73456 1.36174,-6.99593 1.95269,-11.69192 l 1.07442,-8.53817 2.85835,-4.65161 c 3.49455,-5.68699 10.54648,-12.60559 16.38679,-16.07689 7.08824,-4.2131 13.13537,-5.79122 27.68026,-7.22375 l 13.75303,-1.35454 5.20197,-2.71474 c 2.86106,-1.49311 7.51791,-5.197 10.34839,-8.23086 2.83058,-3.03387 5.14643,-5.22488 5.14643,-4.86891 0,0.35598 -2.58055,6.2449 -5.73457,13.08651 -7.85087,17.02964 -15.34664,28.54661 -24.76821,38.05528 l -7.947,8.02048 -6.74946,3.64433 c -3.71225,2.00439 -9.43429,4.35767 -12.71571,5.22952 l -5.96625,1.58518 -8.11333,-0.14983 c -4.46235,-0.0824 -9.27728,-0.33354 -10.6997,-0.55808 z m -515.54614,-1.82319 -2.5285,-1.37983 -0.52318,-7.85993 -0.52308,-7.85992 -2.23205,-5.43461 c -1.22764,-2.98903 -3.28928,-7.19222 -4.5813,-9.34042 l -2.34925,-3.90582 1.43631,-3.09418 c 2.89195,-6.22946 9.69802,-13.72426 19.64344,-21.6311 10.88449,-8.65342 15.95887,-14.24879 18.62768,-20.54019 l 1.66411,-3.9229 -0.0806,-8 c -0.10943,-10.8908 -3.84663,-28.83972 -11.34775,-54.5 -3.45668,-11.825 -6.76529,-22.79991 -7.35255,-24.38868 -0.58717,-1.58878 -0.90187,-3.0594 -0.69932,-3.26804 0.53017,-0.54602 9.45274,23.97085 14.09609,38.73247 2.17573,6.91666 5.09671,18.16666 6.49107,25 l 2.5352,12.42425 0.53532,16.5 0.53531,16.5 -1.61255,9 c -3.95801,22.08991 -14.24795,43.73358 -26.46893,55.67436 l -2.73707,2.67437 z m 448.80999,-4.43536 c -13.70429,-16.95908 -21.12471,-34.04447 -24.46264,-56.32452 l -1.16725,-7.79099 0.55202,-14.70901 c 0.72088,-19.20621 3.14528,-32.10522 10.52172,-55.97995 3.83275,-12.4054 12.64288,-36.42524 13.16353,-35.88907 0.21819,0.22474 -1.8082,7.44698 -4.50323,16.04942 -9.53751,30.44407 -14.61431,53.5922 -14.57838,66.47105 l 0.0214,7.63953 1.96949,4.47156 c 3.10984,7.06037 6.16821,10.5233 16.74674,18.96206 11.40601,9.09887 14.73306,12.50819 19.43477,19.91509 l 3.39522,5.3487 -2.83417,4.60247 c -4.27049,6.93502 -6.59012,14.26198 -7.30332,23.06916 l -0.64242,7.93345 -2.34158,1.09875 c -1.28794,0.60432 -2.52364,1.09876 -2.746,1.09876 -0.22246,0 -2.57404,-2.6849 -5.22586,-5.96646 z M 68.441509,479.60254 c -2.023381,-3.41659 -10.736214,-23.3528 -10.736214,-24.56603 0,-0.36477 3.06663,5.56104 6.814711,13.16845 3.748082,7.60742 6.611868,14.04063 6.363873,14.29602 -0.247994,0.25539 -1.347076,-1.04891 -2.44237,-2.89844 z M 885.48739,468.33869 c 3.73838,-7.92593 6.94308,-14.26525 7.12155,-14.08738 0.47686,0.4753 -8.2484,21.44067 -10.50356,25.23845 -1.0615,1.7875 -2.26409,3.25219 -2.6725,3.25486 -0.4084,0.003 2.31614,-6.48 6.05451,-14.40593 z m -806.210721,6.65107 c -13.412209,-18.74534 -25.56211,-47.024 -32.718324,-76.15144 -3.173829,-12.91779 -7.004057,-35.97944 -7.7394,-46.59856 l -0.554056,-8 2.816596,16 c 8.491638,48.23827 22.313417,85.34977 42.348563,113.70605 4.896296,6.92987 5.176334,7.79395 2.526265,7.79395 h -1.850056 z m 784.120351,5.01889 c -2.24807,-0.54976 -2.18098,-0.85468 1.13908,-5.17181 7.65308,-9.95128 18.25035,-30.06027 25.08331,-47.59708 8.49319,-21.79779 15.57493,-50.10531 20.01369,-80 0.24508,-1.65 0.22518,0.825 -0.0437,5.5 -1.59905,27.76874 -10.92187,64.63188 -23.22771,91.84465 -4.87785,10.78674 -14.81143,28.23888 -18.63962,32.74756 l -2.6254,3.09221 z M 105.8561,457.11759 C 82.788408,441.18057 60.881454,410.01888 51.458719,379.73976 c -1.454761,-4.675 -2.852038,-9.16043 -3.104888,-9.96763 -0.252947,-0.8072 1.599149,0.68325 4.115802,3.31211 8.397062,8.77176 14.908431,12.34039 30.238473,16.57257 l 9.467887,2.61379 3.211503,8.39007 3.2115,8.39007 -1.171902,0.74593 -1.171907,0.74592 1.185306,6.34859 c 1.683041,9.01451 6.330077,22.67331 11.771207,34.59858 2.57219,5.6375 4.37477,10.25 4.00569,10.25 -0.36908,0 -3.68167,-2.07997 -7.36129,-4.62217 z m 732.53752,4.38468 c 0,-0.25713 2.13583,-5.14639 4.74618,-10.86501 5.30286,-11.61687 10.66087,-27.98455 11.4737,-35.04958 l 0.53521,-4.65208 -1.46039,-0.34792 -1.46039,-0.34792 2.82368,-7.5 c 1.55303,-4.125 3.17374,-8.15632 3.60156,-8.95848 0.42783,-0.80217 4.67432,-2.50585 9.43652,-3.78596 4.7623,-1.28011 11.8521,-3.8766 15.75525,-5.76999 l 7.09659,-3.44253 5.76923,-5.94152 c 3.17305,-3.26783 5.76923,-5.5192 5.76923,-5.00303 0,0.51617 -1.5272,5.8038 -3.39386,11.75029 -9.99067,31.82699 -31.80509,61.38756 -58.02224,78.62553 -1.46865,0.96564 -2.67027,1.54533 -2.67027,1.2882 z m -78.99654,-16.958 c -1.43243,-8.96748 -2.59628,-17.31701 -2.58618,-18.55451 l 0.0185,-2.25 h -1.84598 -1.84588 l -5.19391,6.17472 -5.19381,6.17471 -0.31305,-1.66982 c -0.45929,-2.44982 2.50179,-12.24961 5.62911,-18.62974 3.57903,-7.30163 8.12654,-13.43784 20.4421,-27.5835 l 10.16905,-11.68007 2.69094,13.85685 2.69095,13.85685 0.20032,12 0.20032,12 -1.74082,7.73648 -1.74082,7.73648 -4.54897,3.70397 c -2.50199,2.03718 -6.77159,5.89279 -9.48808,8.56802 l -4.93921,4.86406 z m -578.5477,9.92534 c -3.03284,-2.87642 -7.23234,-6.80485 -9.33233,-8.72985 l -3.81819,-3.5 -1.34873,-7 c -0.74184,-3.85 -1.32231,-12.175 -1.28998,-18.5 l 0.0592,-11.5 2.73698,-14.33507 2.73697,-14.33507 1.18579,1.33507 c 5.83497,6.56958 18.13392,21.12576 20.56134,24.33507 6.98832,9.23918 14.01578,24.88782 13.88334,30.91516 l -0.0456,2.08484 -5.5792,-6.25 c -3.06858,-3.4375 -6.03927,-6.25 -6.60139,-6.25 -0.9475,0 -6.23657,29.66711 -6.1952,34.75 0.01,1.2375 -0.30946,2.24093 -0.71,2.22985 -0.40054,-0.0111 -3.20957,-2.37358 -6.2424,-5.25 z m 39.34389,-6.51417 -6.9524,-6.71568 -0.54755,-7.5924 c -0.30111,-4.17582 -0.94916,-8.67582 -1.4401,-10 l -0.89255,-2.4076 3.02944,-6 3.02954,-6 7.84601,-8 c 4.31535,-4.4 10.25392,-10.25 13.19684,-13 l 5.35083,-5 2.7159,-5.74462 2.7159,-5.74463 0.49492,-6.34952 0.49492,-6.34953 -1.61012,-9.90585 c -0.88546,-5.44821 -2.27652,-12.31671 -3.09119,-15.26333 -0.81468,-2.94662 -1.28202,-5.56266 -1.03849,-5.81342 0.73039,-0.7522 5.50035,14.94797 7.5618,24.88909 l 1.92473,9.28181 0.54599,15 0.5461,15 -1.56779,9.24162 c -2.87524,16.94988 -8.88868,31.16013 -19.05239,45.023 -3.32094,4.52946 -6.09869,8.21994 -6.17288,8.20106 -0.0738,-0.0189 -3.26355,-3.05637 -7.08746,-6.75 z m 495.59896,-0.70569 c -10.68524,-14.22489 -16.80102,-28.65277 -19.68898,-46.44839 l -1.69392,-10.43841 0.56405,-13.06159 c 0.31034,-7.18388 1.26551,-16.8866 2.12272,-21.5616 1.65828,-9.04347 7.14048,-28.49639 7.83058,-27.78569 0.22653,0.23331 -0.74137,5.56804 -2.15098,11.85495 l -2.56287,11.43074 -0.0942,9.51382 -0.0932,9.51381 3.13508,6.56564 3.13509,6.56565 11.21793,10.78617 c 10.86623,10.44811 15.60911,16.28971 18.92344,23.30701 l 1.59031,3.36706 -1.25988,6.19042 c -0.69281,3.40473 -1.27551,7.99042 -1.29483,10.19042 -0.0427,4.83702 0.0835,4.64849 -7.80776,11.69818 l -6.34591,5.66921 z m 177.00752,4.99001 c 0,-0.55 0.42355,-1.675 0.94119,-2.5 0.51774,-0.825 0.9413,-1.05 0.9413,-0.5 0,0.55 -0.42356,1.675 -0.9413,2.5 -0.51764,0.825 -0.94119,1.05 -0.94119,0.5 z m -758.38502,-18.5 v -2 h 1.94201 1.94201 v 2 2 h -1.94201 -1.94201 z m 7.76805,0 v -2 h 1.94201 1.94201 v 2 2 h -1.94201 -1.94201 z m 662.22565,0 v -2 h 1.94201 1.94201 v 2 2 h -1.94201 -1.94201 z m 7.76804,0 v -2 h 1.94202 1.94201 v 2 2 h -1.94201 -1.94202 z m 9.71006,-16.59266 c -6.14161,-6.26991 -11.46457,-11.40152 -11.82869,-11.40359 -0.36423,-0.002 -4.83289,4.38375 -9.93048,9.74625 -5.09748,5.3625 -9.27825,9.22303 -9.29058,8.57895 -0.0126,-0.64407 4.23786,-5.75343 9.44488,-11.35413 l 9.4673,-10.18308 12.56481,12.42768 c 6.91065,6.83523 12.15408,12.6887 11.65207,13.00772 -0.50201,0.31903 -5.9377,-4.54988 -12.07931,-10.8198 z m -703.88344,8.84266 c 0.71738,-0.9625 5.88982,-6.59509 11.49437,-12.51687 l 10.19012,-10.76687 9.5012,9.74811 c 5.22556,5.36146 9.50109,10.19717 9.50109,10.74602 0,0.54885 -3.83198,-2.9302 -8.51552,-7.73124 -4.68355,-4.80103 -9.17008,-8.72915 -9.97019,-8.72915 -0.80001,0 -6.02703,4.725 -11.61546,10.5 -5.58853,5.775 -10.54988,10.5 -11.02538,10.5 -0.4755,0 -0.27761,-0.7875 0.43977,-1.75 z m 16.58681,-1.48978 c 0.1707,-1.23188 1.075,-2.38988 2.00959,-2.57332 l 1.69926,-0.33354 v 2.57332 2.57332 h -2.00959 -2.0095 z m 7.59288,-0.26022 v -2.5 h 1.94201 1.94201 v 2.5 2.5 h -1.94201 -1.94201 z m 662.22565,0 v -2.5 h 1.94201 1.94201 v 2.5 2.5 h -1.94201 -1.94201 z m 7.76804,0 v -2.5 h 1.94202 1.94201 v 2.5 2.5 h -1.94201 -1.94202 z m 12.62308,-16.5206 c -7.20972,-7.09741 -13.86276,-12.92126 -14.78453,-12.94189 -0.92178,-0.0206 -5.61902,4.05044 -10.43831,9.04683 l -8.76236,9.08433 v -3.48399 -3.48399 l 5.34082,-5.02691 c 2.93739,-2.76481 7.63463,-6.16372 10.43831,-7.55315 l 5.09749,-2.52624 8.15684,-1.11546 c 24.2764,-3.31983 34.11997,-15.61448 42.2367,-52.75367 3.12324,-14.29068 7.00619,-39.05166 8.33453,-53.14786 1.39825,-14.83806 1.41058,-48.57477 0.0233,-62.5774 -5.03786,-50.83418 -26.85209,-109.33351 -68.98586,-184.999983 -1.22502,-2.2 -1.77015,-3.55 -1.21143,-3 2.68473,2.64259 19.95018,34.358816 29.39612,53.999992 9.70181,20.173041 22.34702,49.838181 22.34702,52.424961 0,0.59127 0.65543,1.07503 1.45651,1.07503 h 1.4565 v -2.15493 c 0,-4.84126 -13.44085,-44.489731 -21.24764,-62.677187 -2.63647,-6.14233 -4.58256,-11.167866 -4.32466,-11.167866 1.1887,0 15.30528,32.291932 20.98343,47.999993 14.62072,40.44687 22.61433,79.0521 25.12322,121.33302 l 1.11743,18.83303 -1.12423,18.16697 c -0.61844,9.99184 -1.80034,22.66697 -2.62657,28.16697 -0.82623,5.5 -1.75742,12.3625 -2.06941,15.25 l -0.56716,5.25 h 1.38591 1.38582 l 3.07236,-9.75 c 4.57897,-14.53138 6.8317,-24.18838 8.65904,-37.1189 l 1.64372,-11.6311 -0.033,-20 -0.033,-20 -1.60837,-12.5 c -3.79343,-29.48221 -10.89896,-58.73529 -21.48962,-88.47176 -2.91719,-8.19104 -5.1473,-15.05418 -4.95582,-15.25141 0.52027,-0.53576 10.09778,23.76768 13.88082,35.22317 7.28448,22.05851 13.30578,50.1498 16.50457,77 l 1.66799,14 0.0485,39.5 0.0486,39.5 -1.30843,10.5 c -1.62808,13.06516 -4.38506,26.91666 -7.56345,38 -3.16344,11.03099 -6.27736,19.94475 -7.16495,20.50969 -1.25047,0.7959 -11.9659,3.4848 -12.34236,3.09715 -0.20032,-0.20637 0.59775,-4.13983 1.77364,-8.74103 l 2.13796,-8.36581 0.0961,-10.47648 0.0961,-10.47647 -1.45651,-0.29436 -1.45651,-0.29435 -3.2851,16.27083 c -1.80685,8.94896 -4.76784,20.99583 -6.58012,26.77083 -3.09168,9.85208 -11.22026,28.42056 -14.0924,32.19189 l -1.28852,1.69189 z m -717.45111,2.2706 c -6.17074,-12.66407 -10.024953,-24.05252 -14.806281,-43.75 -2.136115,-8.8 -4.310779,-17.6875 -4.832695,-19.75 l -0.948867,-3.75 h -1.419124 -1.419028 l -0.169926,5.25 c -0.279649,8.63683 0.225759,12.723 2.959917,23.93068 l 2.605596,10.68067 -2.940496,-0.56434 c -1.617307,-0.31039 -5.114772,-1.2917 -7.772123,-2.18068 L 73.77398,378.23976 70.168054,366.53677 C 65.280401,350.67352 62.018016,335.08554 59.955406,317.73976 l -1.724215,-14.5 0.120211,-32 0.120307,-32 1.544288,-16 c 1.815489,-18.81002 5.348396,-40.21694 9.405742,-56.99123 3.92296,-16.21896 12.567337,-42.39402 17.383136,-52.63575 2.165343,-4.60515 3.64467,-7.47301 3.287145,-6.37301 -0.357427,1.1 -3.574854,10.84388 -7.149902,21.65305 -12.77387,38.62164 -18.761284,69.38628 -20.016115,102.84694 l -0.618724,16.5 1.632551,16.19956 c 1.728099,17.14769 4.467403,30.4776 9.431377,45.89468 l 3.02847,9.40576 h 1.33387 c 1.741984,0 1.75519,0.21108 -1.258326,-20.06163 l -2.592197,-17.43837 -0.05049,-29 -0.05049,-29 2.228652,-16.93472 C 82.387771,158.84652 94.1784,117.61848 112.99279,77.989773 c 7.2505,-15.271758 10.16032,-19.676799 3.96326,-6 -7.13514,15.747466 -22.353029,59.799947 -22.353029,64.707407 0,4.35152 2.674052,1.71504 5.281587,-5.20742 6.835882,-18.14745 19.784722,-46.339641 30.888462,-67.249983 7.12893,-13.425027 18.15994,-32.5 18.79459,-32.5 0.25547,0 -0.61212,1.9125 -1.92793,4.25 -11.68576,20.758633 -29.93678,57.183772 -37.95505,75.749993 -20.086028,46.50894 -29.340196,82.62057 -31.607688,123.34024 l -0.954013,17.13173 0.961781,17.31316 c 2.035422,36.6401 9.239506,73.83861 18.014969,93.02028 l 4.257081,9.30542 6.1049,6.28209 6.10491,6.2821 5.65698,2.17687 c 3.11139,1.19728 8.77896,2.63285 12.59453,3.19016 8.59126,1.25485 15.04864,4.25647 22.28797,10.36028 l 5.58328,4.70755 v 3.67421 3.67421 l -8.51552,-8.72916 -8.51552,-8.72915 h -1.93735 -1.93736 l -12.10843,12.5 c -6.65965,6.875 -12.43878,12.5 -12.84243,12.5 -0.40364,0 -2.87184,-4.3875 -5.48482,-9.75 z m 89.39475,-25 0.3014,-3.75 3.15577,-0.31335 3.15577,-0.31336 v 4.06336 4.06335 h -3.45717 -3.45717 z m 11.46796,-0.25 v -4 h 2.91302 2.91302 v 4 4 h -2.91302 -2.91302 z m 526.46908,0.25 0.3013,-3.75 h 2.91302 2.91301 l 0.3014,3.75 0.30141,3.75 h -3.51582 -3.51572 z m 11.46787,-0.25 v -4 h 2.91301 2.91302 v 4 4 h -2.91302 -2.91301 z m 51.18568,-1.61927 c -0.38131,-0.39273 -0.69339,-2.66406 -0.69339,-5.04739 v -4.33334 h 3.93723 3.93723 l -0.29596,4.75 -0.29596,4.75 -2.94788,0.2974 c -1.62138,0.16356 -3.25996,-0.0239 -3.64127,-0.41667 z m -664.86106,-4.88073 v -4.5 h 3.88402 3.88402 v 4.5 4.5 h -3.88402 -3.88402 z m 12.63628,2.25 c 0.01,-1.2375 0.27673,-3.2625 0.59882,-4.5 l 0.58542,-2.25 h 3.2853 3.2853 v 4.5 4.5 h -3.88403 -3.88402 z m 665.12546,-2.25 v -4.5 h 3.88403 3.88402 v 2.91822 c 0,1.60501 -0.26518,3.63001 -0.5894,4.5 l -0.58931,1.58178 h -3.29471 -3.29463 z m -97.67685,0.11697 -0.60406,-1.62127 16.2993,-17.55448 16.2993,-17.55448 11.44078,11.75168 11.44077,11.75167 -1.00266,1.24418 -1.00266,1.24417 -9.76317,-10.43922 c -5.36985,-5.74157 -10.29994,-10.43922 -10.95585,-10.43922 -0.65592,0 -3.53621,2.5875 -6.40068,5.75 -2.86456,3.1625 -9.69442,10.64111 -15.17759,16.61913 l -9.96932,10.86912 z m -491.72338,-15.04093 -14.07958,-15.3912 -2.03445,-0.0924 -2.03446,-0.0924 -9.86036,10.43742 c -9.40167,9.95182 -11.10753,12.87825 -8.85752,15.19537 1.00645,1.03657 0.32791,4.36721 -0.88973,4.36721 -0.35762,0 -9.34525,-9.45 -19.97261,-21 -10.62737,-11.55 -19.7823,-21 -20.34432,-21 -0.56192,0 -7.88155,7.3125 -16.2657,16.25 l -15.24391,16.25 -1.52302,-1.53162 -1.52303,-1.53162 17.07921,-18.22667 17.07931,-18.22666 13.74624,14.63244 c 7.56034,8.04785 15.44821,16.60158 17.52849,19.00829 2.08028,2.40671 4.48352,4.37565 5.34053,4.37542 0.85701,-2.4e-4 6.72402,-5.62524 13.03789,-12.5 6.31387,-6.87477 11.8084,-12.49958 12.2101,-12.49958 0.9882,0 32.05746,34.24364 32.18651,35.475 0.29771,2.84137 -2.76679,0.10752 -15.57959,-13.89896 z m 544.77505,12.97494 -1.33892,-1.66154 6.71771,-7.17863 c 3.69477,-3.94824 13.37405,-14.16087 21.50962,-22.69472 l 14.79181,-15.51609 17.40964,17.90276 17.40975,17.90276 -1.11957,1.84627 -1.11957,1.84627 -15.55658,-15.99903 c -8.55611,-8.79946 -16.27532,-15.99903 -17.15369,-15.99903 -0.87837,0 -10.28528,9.27282 -20.9041,20.60626 l -19.30708,20.60625 z m -568.35825,-1.17173 c -0.38064,-0.39192 -0.69194,-2.21258 -0.69194,-4.04591 v -3.33334 h 3.45707 3.45717 l -0.3014,3.75 -0.30131,3.75 -2.46383,0.29591 c -1.35513,0.16275 -2.77523,-0.0248 -3.15576,-0.41666 z m 548.89707,-3.37925 v -4 h 2.91301 2.91302 v 4 4 h -2.91302 -2.91301 z m -537.93695,-0.5 v -3.5 h 2.91302 2.91302 v 3.5 3.5 h -2.91302 -2.91302 z m 526.28488,0 v -3.5 h 3.39852 3.39852 v 3.5 3.5 h -3.39852 -3.39852 z m 151.74302,0.22805 c 3.19004,-8.56129 9.18047,-36.30269 11.49408,-53.22805 l 1.91366,-14 0.57144,-24 0.57144,-24 -1.13258,-13.87868 c -0.62281,-7.63327 -1.32727,-15.95827 -1.56536,-18.5 l -0.43278,-4.62132 1.37067,6 c 0.75379,3.3 2.11893,12.75 3.03342,21 l 1.66285,15 0.01,18.5 v 18.5 l -1.66421,14.5 c -2.94651,25.67324 -9.16037,53.97239 -12.74716,58.05416 -1.92832,2.19439 -3.80402,2.60415 -3.08479,0.67389 z M 59.766643,369.16894 C 55.086299,363.04119 48.40209,331.22182 45.951272,303.40301 l -1.13093,-12.83675 0.519779,-19.66325 0.519877,-19.66325 2.074456,-14.5 c 2.156312,-15.07172 3.696036,-22.94078 3.815372,-19.5 0.03787,1.1 -0.366846,5.375 -0.900219,9.5 -1.678189,12.98052 -2.570737,42.85061 -1.792865,60 1.226186,27.03117 5.40889,54.48747 11.539916,75.75 1.466995,5.0875 2.32216,9.25 1.900452,9.25 -0.421805,0 -1.650418,-1.15687 -2.730467,-2.57082 z m 646.556147,-1.48302 -1.11268,-4.25572 0.68087,-6.09522 c 0.37442,-3.35237 2.19457,-11.24793 4.04482,-17.54569 l 3.36405,-11.45047 -1.67401,-8.21515 -1.67402,-8.21515 0.58804,-14.83438 0.58795,-14.83438 3.43046,-14.5 c 3.68167,-15.56215 3.74595,-14.53178 0.49891,8 -2.3477,16.29144 -2.75717,34.27427 -1.00033,43.937 1.59623,8.77903 4.84638,14.94491 11.29619,21.43012 l 5.43967,5.46959 -11.42271,12.33165 c -6.28251,6.7824 -11.53778,12.48957 -11.67858,12.68259 -0.1407,0.19301 -0.75661,-1.56414 -1.36863,-3.90479 z m -476.90798,-9.15676 -11.15142,-12.2894 5.51162,-5.5 c 3.03139,-3.025 6.4668,-7.42854 7.63434,-9.78565 l 2.12272,-4.28566 1.55477,-10.71434 1.55477,-10.71435 -1.15831,-12.96183 c -0.63707,-7.129 -2.00901,-18.08622 -3.04866,-24.34937 -2.78378,-16.76938 -2.15806,-16.65559 1.7113,0.3112 l 3.42075,15 0.13012,17 0.13001,17 -1.32192,5.54872 -1.32203,5.54872 2.96342,9.52725 c 4.9162,15.80573 6.27813,28.98069 3.31161,32.0358 l -0.89167,0.91831 z m -96.55553,7.8058 c -0.28791,-0.77264 -0.38336,-2.91014 -0.21226,-4.75 l 0.3112,-3.3452 h 3.39852 3.39852 l 0.29596,4.75 0.29597,4.75 h -3.48222 -3.48222 z m 12.62307,0 c -0.2879,-0.77264 -0.38335,-2.91014 -0.21226,-4.75 l 0.31121,-3.3452 3.64127,-0.31036 3.64127,-0.31037 v 5.06037 5.06036 h -3.42901 -3.42901 z m 651.54469,0 c -0.2879,-0.77264 -0.38345,-2.91014 -0.21226,-4.75 l 0.31111,-3.3452 3.64127,-0.31036 3.64127,-0.31037 v 5.06037 5.06036 h -3.42901 -3.42891 z m 13.20742,-3.5952 v -5.12073 l 3.64127,0.31037 3.64127,0.31036 -0.0117,4.5 -0.0117,4.5 -3.62972,0.31037 -3.62971,0.31036 z M 101.09623,346.82634 C 93.634346,330.26942 88.97216,310.67182 86.252567,284.43109 l -1.574291,-15.19133 0.550463,-18 c 0.600858,-19.64825 2.17146,-33.64962 5.974015,-53.25838 2.665701,-13.74619 10.169436,-42.60414 10.886136,-41.86602 0.241,0.24822 -0.93421,6.22775 -2.611522,13.28785 -8.041476,33.84708 -10.277799,51.42108 -9.459241,74.33474 l 0.518128,14.50181 1.657313,5.49834 c 0.91158,3.02409 3.182471,8.64909 5.046607,12.5 l 3.389195,7.00166 9.46021,9.53746 c 5.20314,5.24561 11.54109,12.44561 14.08444,16 4.12901,5.77055 10.24071,16.84427 10.24071,18.55513 0,0.86635 -27.37119,29.40741 -28.20198,29.40741 -0.35685,0 -2.65929,-4.46104 -5.11652,-9.91342 z m 728.1813,-4.97472 -14.36496,-14.81865 2.64658,-5.3966 c 4.40652,-8.9851 8.06429,-13.89747 18.91043,-25.39661 15.04903,-15.95514 18.88091,-22.45167 21.78596,-36.93568 l 1.50021,-7.48 v -12.32202 c 0,-19.84335 -3.84965,-45.70334 -11.12452,-74.72886 -1.30494,-5.20661 -2.21322,-9.63071 -2.01843,-9.83134 0.54153,-0.55765 4.96261,14.89642 8.24762,28.82928 4.46595,18.9422 7.59599,39.72331 8.93228,59.30428 l 1.20648,17.67892 -1.18007,15.98303 c -1.25512,16.99887 -3.73157,33.62906 -6.8751,46.16775 -2.22768,8.88557 -9.00142,27.09304 -11.55157,31.0499 l -1.74995,2.71525 z m -659.9066,-0.61186 v -4.5 h 3.88402 3.88403 v 4.5 4.5 h -3.88403 -3.88402 z m 12.62307,0 v -4.5 h 3.88403 3.88402 v 4.5 4.5 h -3.88402 -3.88403 z m 599.1103,-30.84501 v -35.65499 h -1.40126 c -0.77069,0 -4.15707,2.38094 -7.5253,5.29097 -3.36822,2.91004 -13.00603,11.03132 -21.41737,18.04729 l -15.29334,12.75632 v 15.1077 15.1077 l -1.94201,-1.80998 -1.94201,-1.80997 v -6.69414 c 0,-3.68177 0.28693,-10.18949 0.63756,-14.46159 l 0.63757,-7.76747 23.88032,-20.42815 23.88033,-20.42815 0.48551,-9.31286 0.4855,-9.31286 22.57588,17.94394 22.57588,17.94393 -0.0311,4.66366 c -0.0165,2.56502 -0.67243,5.53717 -1.45651,6.60479 l -1.42563,1.94113 v -5.09801 -5.09801 l -4.61228,-3.9146 c -9.96184,-8.45498 -31.96414,-25.27164 -33.06449,-25.27164 h -1.16346 v 41.84502 41.84501 l -1.94201,1.80997 -1.94201,1.80998 z M 37.503427,338.23976 c 0.01942,-1.65 0.237411,-2.20393 0.483658,-1.23096 0.24615,0.97296 0.229934,2.32296 -0.03593,3 -0.265958,0.67703 -0.467442,-0.11904 -0.447633,-1.76904 z m 872.933953,0 c 0.0194,-1.65 0.23741,-2.20393 0.48356,-1.23096 0.24625,0.97296 0.23004,2.32296 -0.0359,3 -0.26596,0.67703 -0.46735,-0.11904 -0.44764,-1.76904 z m -695.76127,-1.17534 c -0.35141,-0.36189 -0.63892,-1.37518 -0.63892,-2.25174 0,-1.85597 -34.31728,-37.4996 -35.57056,-36.94535 -0.46317,0.20484 -6.19482,6.03302 -12.73697,12.95151 l -11.89482,12.57908 -0.032,4.42092 -0.032,4.42092 -1.90968,-2.36078 -1.90977,-2.36078 v -11.88922 -11.88922 h 1.94201 1.94201 v 5.5 5.5 h 1.19919 c 0.65951,0 6.34125,-5.28187 12.62608,-11.73749 l 11.42699,-11.73749 19.4171,19.97811 19.41701,19.97812 v 2.13693 c 0,2.29124 -2.1902,4.79286 -3.2451,3.70648 z m 536.51655,-10.07466 0.29597,-4.75 h 2.91301 2.91302 l 0.29596,4.75 0.29596,4.75 h -3.50494 -3.50494 z m 12.43354,0.25 v -4.5 h 3.88402 3.88402 v 4.5 4.5 h -3.88402 -3.88402 z m 30.32664,-18 0.26003,-23 3.09129,-0.3084 3.0912,-0.3084 0.90265,1.8084 c 0.49647,0.99462 0.78166,9.63797 0.63377,19.20744 l -0.26887,17.39904 -3.9851,4.10096 -3.98511,4.10096 z m -70.38626,17.40223 c -1.47175,-2.52877 -3.16227,-7.25377 -3.75662,-10.5 l -1.08073,-5.90223 0.57231,-11.5 0.57221,-11.5 2.46441,-9.35403 c 1.35543,-5.14471 2.8468,-10.05778 3.31424,-10.91793 l 0.84983,-1.5639 0.71436,4.41793 c 1.22114,7.552 4.47003,15.07831 8.40814,19.4782 l 3.77944,4.22265 -6.31056,5.70578 -6.31057,5.70577 -0.27023,13.15277 -0.27033,13.15276 z m -554.19565,-1.40223 v -4.5 h 3.88402 3.88403 v 4.5 4.5 h -3.88403 -3.88402 z m 12.80999,0.25 0.29859,-4.25 3.64127,-0.31036 3.64127,-0.31037 v 4.56037 4.56036 h -3.93986 -3.93985 z m 40.59532,2.65988 c 0,-0.87457 -5.31645,-7.17436 -11.81432,-13.99954 -6.49797,-6.82517 -11.63217,-12.57535 -11.40932,-12.77817 0.22275,-0.20282 3.02672,-2.54677 6.23104,-5.20877 3.20432,-2.66201 6.60128,-5.75878 7.54889,-6.88171 3.1345,-3.71453 6.58798,-11.53915 7.87165,-17.83518 l 1.26551,-6.20651 2.54938,8.5 c 3.62554,12.08796 4.86512,21.90584 4.31,34.13566 l -0.48278,10.63566 -2.49578,5.61434 c -2.53957,5.71271 -3.57427,6.87769 -3.57427,4.02422 z m 528.22688,-16.90988 v -4.5 h 3.39852 3.39852 v 4.5 4.5 h -3.39852 -3.39852 z m 12.62308,0 v -4.5 h 3.88402 3.88402 v 4.5 4.5 h -3.88402 -3.88402 z M 145.5813,287.19702 c -7.47675,-7.39259 -13.9786,-13.44471 -14.44847,-13.44916 -0.46987,-0.004 -3.82926,3.1419 -7.46519,6.9919 -6.77781,7.17677 -8.09149,8.00314 -8.97083,5.64321 l -0.5055,-1.35678 8.63127,-8.84785 8.63126,-8.84785 14.61878,14.95464 c 8.04042,8.22505 15.06059,15.11089 15.60057,15.30188 l 0.98178,0.34725 -1.13044,1.40275 c -0.62174,0.77151 -1.40466,1.37988 -1.73985,1.35192 -0.33509,-0.028 -6.72664,-6.09932 -14.20338,-13.49191 z m 40.78223,2.54274 c -3.70973,-3.85 -7.20855,-7 -7.77523,-7 -0.56658,0 -3.40182,2.47321 -6.30056,5.49603 l -5.27033,5.49602 -3.67827,-3.69897 c -2.02309,-2.03444 -3.67826,-4.17495 -3.67826,-4.7567 0,-2.244 9.36777,-15.34179 15.45938,-21.61497 3.51348,-3.61823 12.15388,-10.94931 19.20076,-16.29129 l 12.81261,-9.71268 3.3189,-4.70872 c 5.11001,-7.24974 5.41588,-8.11348 10.84166,-30.6114 4.24485,-17.60107 10.65116,-37.55853 11.68402,-36.39911 0.14788,0.16599 -2.08825,9.97679 -4.96932,21.80179 -6.37339,26.15972 -7.4479,31.4841 -10.09059,50 -2.58375,18.10266 -5.57086,28.92476 -11.22667,40.67327 -3.9283,8.16011 -11.09083,18.32673 -12.91137,18.32673 -0.36946,0 -3.707,-3.15 -7.41673,-7 z m 646.20406,-5.1969 v -3.66356 l -12.13757,-9.69873 c -6.70596,-5.3585 -12.13446,-10.42415 -12.13077,-11.31977 0.0126,-3.03141 3.73546,-17.59113 6.71576,-26.26553 1.63353,-4.75447 6.48448,-16.00447 10.77982,-25 4.29543,-8.99553 8.75148,-19.50551 9.90231,-23.35551 l 2.09252,-7 0.0592,-11 c 0.033,-6.05 -0.23654,-13.925 -0.59814,-17.5 l -0.65737,-6.5 1.49661,6.5 c 0.82312,3.575 3.01769,12.33107 4.87678,19.45793 1.85918,7.12685 4.22951,17.25185 5.26741,22.5 l 1.88715,9.54207 0.58299,15.12394 0.583,15.12394 -1.20628,9.86935 c -2.14894,17.58229 -8.63982,37.2977 -14.27738,43.36611 l -3.23607,3.48333 z m -89.80364,-4.77383 c -5.63494,-11.52362 -8.93995,-23.33442 -12.18059,-43.52927 -1.67693,-10.45 -5.65183,-29.8 -8.83314,-43 -3.1813,-13.2 -5.99839,-24.9 -6.26017,-26 -0.26178,-1.1 0.36966,-0.41815 1.4032,1.51522 2.80893,5.25439 8.39366,23.15344 10.75962,34.48478 2.95205,14.13739 4.80861,20.40315 7.4077,25 3.05644,5.40585 10.78972,12.90729 21.05995,20.42872 4.68374,3.43015 10.71582,8.33693 13.40473,10.90396 l 4.88891,4.66732 -13.18567,11 c -7.25205,6.05 -13.59155,11.143 -14.08764,11.31777 -0.49609,0.17477 -2.46577,-2.88005 -4.3769,-6.7885 z m -591.44353,-2.13853 -1.8551,-2.12153 0.14652,-8.45951 c 0.39656,-22.89757 7.30915,-39.65267 23.07032,-55.91896 l 8.82634,-9.10927 11.40291,-7.69924 c 6.27163,-4.23458 13.60282,-9.90598 16.29153,-12.60311 l 4.88862,-4.90387 3.74731,-8.28762 c 2.06096,-4.5582 5.6464,-12.56263 7.96768,-17.78763 4.32952,-9.7451 9.2299,-18.9573 11.96891,-22.5 0.8504,-1.1 0.38675,0.7 -1.03043,4 -8.42785,19.62455 -11.39155,27.59185 -15.43763,41.5 -2.48005,8.525 -5.82953,20 -7.44325,25.5 -3.58417,12.21558 -9.83754,24.96604 -16.22297,33.07824 l -4.78444,6.07824 -11.12199,8.64625 c -12.66774,9.84779 -16.36766,13.7607 -23.19218,24.52701 -2.66629,4.20632 -4.96466,7.76816 -5.10739,7.91519 -0.14274,0.14703 -1.09442,-0.68735 -2.11476,-1.85419 z m -44.40981,-5.64074 c -3.54427,-9.32789 -6.06296,-19.9776 -7.494124,-31.68733 l -1.212495,-9.92061 0.602412,-13.57103 c 0.731944,-16.49184 1.545357,-21.88269 6.498167,-43.07103 6.01926,-25.75077 7.72813,-32.74325 7.20923,-29.5 -0.26402,1.65 -0.73127,8.85 -1.0383,16 l -0.55823,13 1.53497,7.41846 1.53506,7.41845 8.86334,18.58155 c 11.7849,24.70623 16.13335,38.12895 18.81634,58.08154 l 0.60513,4.5 -5.17303,-5.25 c -2.84515,-2.8875 -5.60436,-5.25 -6.13161,-5.25 -0.52736,0 -5.31189,4.5 -10.63232,10 -5.32053,5.5 -9.94048,10 -10.26673,10 -0.32616,0 -1.74723,-3.0375 -3.15781,-6.75 z M 788.48928,245.6112 c -5.28421,-4.32929 -10.46802,-7.87144 -11.51962,-7.87144 h -1.91191 l 0.66242,4.5492 c 0.36432,2.50206 0.37976,5.87466 0.034,7.49466 l -0.62814,2.94547 -6.47826,-4.66006 c -19.33787,-13.91039 -27.29196,-26.87933 -36.57661,-59.63725 -5.54648,-19.56898 -11.63391,-36.40503 -19.05181,-52.69202 -3.1313,-6.875 -5.0135,-11.59999 -4.1828,-10.49999 4.69879,6.22222 11.12568,18.38503 17.54636,33.20604 l 7.27535,16.79395 4.54557,4.81833 c 2.50005,2.65008 10.31723,8.84427 17.37158,13.76487 20.55425,14.33713 29.7252,24.29936 37.13427,40.33829 3.35181,7.25601 6.65139,18.18164 5.73922,19.00393 -0.19371,0.1746 -4.67568,-3.22469 -9.95989,-7.55398 z m -558.76268,5.12856 c 0,-1.375 0.22032,-1.9375 0.48977,-1.25 0.26936,0.6875 0.26936,1.8125 0,2.5 -0.26945,0.6875 -0.48977,0.125 -0.48977,-1.25 z m 488.41566,0 c 0,-1.375 0.22041,-1.9375 0.48977,-1.25 0.26936,0.6875 0.26936,1.8125 0,2.5 -0.26936,0.6875 -0.48977,0.125 -0.48977,-1.25 z m -576.77688,-18.25 c -1.24046,-3.9875 -5.51531,-14.31127 -9.49964,-22.94171 l -7.24418,-15.69171 -2.56754,-9.80829 -2.56743,-9.80829 -0.0418,-17.5 -0.0418,-17.5 2.22535,-10.45848 c 6.27202,-29.477781 23.1746,-71.890744 39.35884,-98.761853 9.37079,-15.558499 28.08206,-40.083653 35.69018,-46.779653 l 2.27245,-2 -3.43183,4.5 c -5.26159,6.8995004 -25.16234,35.608572 -30.33227,43.757775 -10.5191,16.580911 -24.48556,44.884324 -28.85838,58.48209 l -2.16738,6.73987 0.47783,10.260131 c 0.56299,12.08719 2.08999,17.93865 9.07356,34.76875 5.8103,14.00251 9.58946,27.57036 10.9912,39.45992 l 0.93945,7.96855 -0.93576,8.48108 c -1.25901,11.41138 -3.25209,20.4731 -7.33119,33.33182 -1.87559,5.9125 -3.48746,10.75 -3.58194,10.75 -0.0942,0 -1.18657,-3.2625 -2.42713,-7.25 z m 663.27036,4.67393 c -1.63876,-3.17573 -6.89423,-22.32998 -8.62185,-31.42393 -0.89459,-4.70876 -1.60497,-13.18329 -1.59274,-19 l 0.0223,-10.5 1.54088,-7 c 1.87443,-8.51482 5.82419,-20.29966 11.78063,-35.14915 5.23838,-13.05942 7.28449,-22.05615 7.30789,-32.13238 l 0.0165,-7.281551 -1.95715,-5.98313 C 805.2366,64.555867 788.02757,33.960722 761.12935,-3.7602252 l -9.27009,-13.0000008 5.58289,6 c 21.8485,23.481106 41.79946,56.746878 55.47627,92.499995 11.22434,29.342251 16.61293,51.133921 17.43314,70.499991 l 0.50813,12 -1.07083,7.07657 c -1.74043,11.50162 -5.71815,24.10124 -11.32726,35.87984 -2.89253,6.07398 -6.96328,15.73436 -9.04618,21.46752 l -3.78702,10.42393 z m 92.09493,-21.00726 0.0767,-1.91667 0.50997,1.3125 c 0.28052,0.72188 0.24596,1.58438 -0.0767,1.91667 -0.32266,0.33229 -0.55211,-0.25833 -0.50997,-1.3125 z m -736.7448,-12.01548 c 0.29907,-1.59565 0.81438,-5.82619 1.14511,-9.40119 0.83302,-9.00614 2.94642,-16.29127 7.10727,-24.5 l 3.54825,-7 6.80296,-7.09956 6.80306,-7.09957 10.19556,-6.07905 c 5.60756,-3.34348 12.49869,-7.49464 15.31354,-9.22479 l 5.11797,-3.14572 2.38169,-4.84039 c 1.30998,-2.66221 4.41176,-10.16625 6.89297,-16.67564 9.76968,-25.631221 23.43415,-52.040195 37.12989,-71.760017 6.57497,-9.467034 20.06253,-24.31669 24.5111,-26.986489 l 3.1846,-1.9112438 -6.24346,7.4112428 c -28.64467,34.002592 -48.36162,69.320576 -61.64983,110.430167 -7.68531,23.77606 -12.85359,35.34826 -20.56667,46.05062 -8.56631,11.88639 -17.77154,19.64405 -38.46717,32.41782 l -3.7506,2.315 z m 619.12379,-3.68839 c -11.88123,-7.4564 -16.98658,-11.5452 -24.81094,-19.87078 -12.08834,-12.86269 -17.37091,-23.15736 -27.10155,-52.81554 -7.1332,-21.74174 -13.04361,-35.638471 -22.78319,-53.568797 -11.26444,-20.737412 -24.37107,-39.994227 -39.6177,-58.207666 -2.87748,-3.437499 -4.75929,-6.2499988 -4.18164,-6.2499988 2.04115,0 15.88264,14.5451838 22.59909,23.7480138 15.06525,20.642291 27.24166,43.391951 39.67791,74.131688 4.08958,10.10884 8.56932,19.84276 9.95475,21.63095 1.38543,1.7882 6.35358,5.3865 11.04033,7.99624 23.52766,13.10102 34.95581,24.63696 40.78165,41.16631 2.88068,8.1732 5.32752,27.38418 3.47572,27.28958 -0.40054,-0.0205 -4.46605,-2.38296 -9.03443,-5.25 z M 157.73479,158.61677 c -1.14501,-4.05736 -3.31385,-10.76568 -4.81978,-14.90739 -4.12629,-11.34864 -5.31062,-18.31112 -5.268,-30.96961 l 0.0388,-11.5 2.11466,-8.876991 c 2.77639,-11.65521 7.37721,-21.548416 20.61629,-44.331763 18.78391,-32.325319 28.1144,-45.3057488 45.85419,-63.791242 l 11.51593,-12 -7.00037,8.5 C 204.06583,1.0424112 180.41398,35.444569 175.02976,47.293922 l -2.99808,6.598152 -0.48162,8.699903 -0.48171,8.699906 2.22146,16.973946 c 4.44604,33.972851 2.02144,51.359721 -10.0198,71.850941 l -3.45348,5.877 z m 628.51389,1.95725 c -8.31219,-14.2607 -11.66935,-25.04538 -12.55578,-40.33425 l -0.57969,-10 2.25691,-16.000001 c 1.24133,-8.8 2.27468,-20.949996 2.29633,-26.999996 l 0.0398,-10.999996 -1.80587,-5.33845 c -3.11606,-9.211822 -29.7554,-48.3491498 -46.49049,-68.301653 -8.89159,-10.601 -4.30874,-6.98714 6.89463,5.43685 17.12378,18.9895852 24.63072,29.725384 43.84449,62.703253 12.08368,20.739856 15.18973,27.235706 18.64836,38.999992 l 1.91094,6.5 0.52036,13.248511 0.52046,13.24851 -1.19065,6.25148 c -0.65485,3.43832 -2.64968,10.30149 -4.43293,15.25149 -1.78335,4.95 -4.0355,11.85042 -5.00486,15.33426 l -1.76237,6.33426 z M 179.69981,139.33349 c 0.73359,-2.80155 1.61158,-8.46873 1.95085,-12.59373 0.33936,-4.12499 1.40067,-9.11168 2.35847,-11.08152 2.6123,-5.37263 12.09747,-13.80555 21.78946,-19.372321 4.74375,-2.72462 10.17653,-6.61512 12.073,-8.64555 1.89647,-2.03043 7.10932,-10.376196 11.584,-18.546146 9.39283,-17.149254 18.82858,-31.905067 24.52615,-38.354446 l 3.97539,-4.5 -1.75208,3 c -0.96363,1.65 -4.2397,7.065336 -7.28031,12.034081 -8.63768,14.1155 -16.60556,30.257445 -25.51978,51.699821 l -8.20402,19.733901 -4.46255,6.44044 c -5.17633,7.47057 -9.38292,11.27928 -17.19165,15.56556 -3.0811,1.69128 -7.75737,4.56873 -10.39151,6.39434 l -4.78939,3.31929 z m 588.11462,2.91315 c -1.1384,-0.82122 -5.93294,-3.77946 -10.65435,-6.57388 -14.55314,-8.61337 -20.39433,-15.8939 -28.62933,-35.684341 C 716.87655,71.981183 707.4309,53.155404 695.60473,34.364816 l -5.74291,-9.125039 4.42788,5 c 5.90604,6.669178 17.13446,24.148127 25.308,39.396286 3.65467,6.81797 8.45328,14.467966 10.66358,16.999996 l 4.0188,4.60371 9.35855,5.42698 c 10.73272,6.223861 15.52881,10.168441 19.45138,15.997671 l 2.76824,4.11386 1.661,11.25163 c 0.91352,6.1884 1.97007,12.25473 2.34789,13.48074 0.81254,2.63663 0.65863,2.69181 -2.05271,0.73599 z m 67.74289,-1.09021 0.0767,-1.91667 0.50997,1.3125 c 0.28052,0.72188 0.24595,1.58438 -0.0767,1.91667 -0.32267,0.33229 -0.55211,-0.25833 -0.50997,-1.3125 z M 230.54428,122.5255 c 0,-4.26306 18.74138,-44.407777 22.54199,-48.285727 0.53901,-0.55 -1.44077,3.725 -4.39953,9.499996 -2.95884,5.775 -8.07294,16.800001 -11.36474,24.500001 -5.64475,13.20373 -6.77772,15.59186 -6.77772,14.28573 z m 482.28153,-10.57164 c -2.49694,-5.91864 -7.32527,-16.488081 -10.72962,-23.487631 -3.40434,-6.99955 -6.06053,-12.726456 -5.90254,-12.726456 0.643,0 10.35383,18.222426 13.63884,25.593327 4.23242,9.49655 8.36725,20.52297 7.88301,21.02164 -0.19245,0.19816 -2.39275,-4.48223 -4.88969,-10.40088 z m -531.24944,-8.89252 c -0.33965,-0.91147 -0.86953,-6.419201 -1.17763,-12.239391 l -0.56017,-10.58218 1.58002,-6.886716 c 0.86905,-3.78769 3.21101,-10.085213 5.20449,-13.994488 l 3.62447,-7.107772 5.82603,-6.083368 c 3.20432,-3.345852 9.18882,-8.408164 13.2989,-11.249581 l 7.47295,-5.166212 8.04459,-10.255928 c 10.087,-12.8596468 30.65659,-34.65727 40.44937,-42.86426 l 7.44363,-6.23816 -3.88169,4.42324 c -2.13485,2.43279 -9.3636,10.27325 -16.06383,17.4232504 -18.24743,19.4722486 -30.92769,34.5252596 -33.73157,40.0433476 -0.57104,1.123839 -2.20612,7.405919 -3.6335,13.960176 -5.88478,27.021825 -12.9169,40.560321 -27.92758,53.767302 l -5.35101,4.70797 z m 578.91824,-3.920341 c -13.97627,-12.1003 -20.2982,-24.287826 -26.63595,-51.348846 -1.86103,-7.946193 -3.81459,-15.276783 -4.34117,-16.2902 -2.36712,-4.554912 -19.27456,-23.9772058 -45.46044,-52.222219 -4.56878,-4.92803 -7.43295,-8.28361 -6.36485,-7.45685 10.3952,8.04633 31.5604,29.7951822 44.29126,45.512752 l 10.60736,13.095859 7.62064,5.111775 c 4.19135,2.811476 10.52522,8.342658 14.07531,12.291515 l 6.45457,7.17974 2.79212,6.112626 c 1.53565,3.361944 3.54854,9.262622 4.47294,13.112622 l 1.68081,6.999996 -0.62465,8.5 c -0.34354,4.675 -0.94265,9.97486 -1.33124,11.777451 l -0.7066,3.27745 z M 215.02169,72.113273 c -0.0252,-2.09311 11.18162,-23.817797 16.31299,-31.623496 5.52017,-8.397125 7.55811,-10.338035 3.67506,-3.5 -1.32746,2.3375 -6.36474,11.45 -11.19404,20.25 -4.8293,8.799996 -8.78663,15.493076 -8.79401,14.873496 z M 722.78968,53.489777 c -5.49628,-10.0375 -10.62299,-19.2625 -11.39271,-20.5 -0.76962,-1.2375 -1.1756,-2.25 -0.90206,-2.25 0.77554,0 11.90385,17.995786 16.17608,26.158604 4.01462,7.670642 7.1532,14.841392 6.49602,14.841392 -0.21129,0 -4.88105,-8.212496 -10.37733,-18.249996 z m -571.86785,-24.75 c 0.57163,-1.1 1.25774,-2 1.52477,-2 0.26702,0 0.0175,0.9 -0.55377,2 -0.57163,1.1 -1.25784,2 -1.52487,2 -0.26702,0 -0.0175,-0.9 0.55387,-2 z"
         id="path2" />
      <text
         xml:space="preserve"
         style="font-style:normal;font-variant:normal;font-weight:normal;font-stretch:normal;font-size:130.574px;font-family:Kunaroh;-inkscape-font-specification:Kunaroh;text-align:center;writing-mode:lr-tb;direction:ltr;text-anchor:middle;white-space:pre;inline-size:785.428;fill:#ffffff;stroke-width:2.04021"
         x="281.97906"
         y="176.20468"
         id="text1227"
         transform="matrix(0.8590065,0,0,0.89762321,234.16475,78.061205)"><tspan
           x="281.97906"
           y="176.20468"
           id="tspan2">BA<tspan
   style="font-weight:bold;font-size:133.481px;font-family:Cambria;-inkscape-font-specification:'Cambria Bold'"
   id="tspan1">RR</tspan>IO
</tspan><tspan
           x="281.97906"
           y="339.42219"
           id="tspan3">EL
</tspan><tspan
           x="281.97906"
           y="502.63971"
           id="tspan4">TRIGAL</tspan></text>
    </g>
  </g>
</svg>
